<svg xmlns="http://www.w3.org/2000/svg" xmlns:xlink="http://www.w3.org/1999/xlink" width="500" zoomAndPan="magnify" viewBox="0 0 375 374.999991" height="500" preserveAspectRatio="xMidYMid meet" version="1.0"><defs><g/><clipPath id="eee4cd1ab6"><path d="M 63 7.460938 L 273.519531 7.460938 L 273.519531 367.460938 L 63 367.460938 Z M 63 7.460938 " clip-rule="nonzero"/></clipPath><clipPath id="d884ce1f6d"><path d="M 63 14 L 273.519531 14 L 273.519531 347 L 63 347 Z M 63 14 " clip-rule="nonzero"/></clipPath><clipPath id="3e9dbb10fc"><path d="M 62.769531 7.460938 L 273.519531 7.460938 L 273.519531 367.460938 L 62.769531 367.460938 Z M 62.769531 7.460938 " clip-rule="nonzero"/></clipPath></defs><g fill="#000000" fill-opacity="1"><g transform="translate(154.254076, 226.249994)"><g><path d="M 27.40625 0 L 21.46875 0 L 19.3125 -6.578125 L 8.375 -6.578125 L 6.234375 0 L 0.4375 0 L 10.296875 -28.5625 L 17.546875 -28.5625 Z M 13.578125 -22.59375 L 9.90625 -11.328125 L 17.75 -11.328125 L 14.0625 -22.59375 Z M 13.578125 -22.59375 "/></g></g></g><g clip-path="url(#eee4cd1ab6)"><path fill="#601c87" d="M 257.261719 14.792969 C 257.261719 18.625 217.085938 22.632812 167.539062 22.632812 C 117.988281 22.632812 77.816406 18.625 77.816406 14.792969 C 77.816406 10.964844 117.988281 7.863281 167.539062 7.863281 C 217.085938 7.863281 257.261719 10.988281 257.261719 14.792969 Z M 260.941406 22.101562 L 262.980469 26.183594 C 262.980469 30.015625 220.640625 35.007812 168.140625 35.007812 C 115.644531 35.007812 72.902344 30.015625 72.902344 26.183594 L 74.4375 22.632812 C 67.984375 24.246094 64.355469 26.035156 64.355469 27.925781 C 64.355469 34.730469 111.109375 40.25 168.796875 40.25 C 226.488281 40.25 273.238281 34.730469 273.238281 27.925781 C 273.265625 25.808594 268.804688 23.839844 260.941406 22.101562 Z M 168.167969 346.917969 C 110.125 346.917969 63.070312 341.398438 63.070312 334.59375 L 63.070312 354.804688 C 63.070312 361.609375 110.125 367.128906 168.167969 367.128906 C 226.210938 367.128906 273.265625 361.609375 273.265625 354.804688 L 273.265625 334.59375 C 273.265625 341.421875 226.210938 346.917969 168.167969 346.917969 Z M 80.789062 335.953125 L 77.917969 335.953125 C 76.253906 335.953125 74.890625 334.59375 74.890625 332.929688 L 74.890625 204.117188 C 74.890625 202.453125 76.253906 201.09375 77.917969 201.09375 L 80.789062 201.09375 C 82.453125 201.09375 83.8125 202.453125 83.8125 204.117188 L 83.8125 332.929688 C 83.839844 334.59375 82.476562 335.953125 80.789062 335.953125 Z M 257.789062 335.953125 L 254.917969 335.953125 C 253.253906 335.953125 251.890625 334.59375 251.890625 332.929688 L 251.890625 204.117188 C 251.890625 202.453125 253.253906 201.09375 254.917969 201.09375 L 257.789062 201.09375 C 259.453125 201.09375 260.8125 202.453125 260.8125 204.117188 L 260.8125 332.929688 C 260.8125 334.59375 259.453125 335.953125 257.789062 335.953125 Z M 109.242188 122.285156 C 109.242188 122.285156 142.535156 109.933594 170.160156 113.867188 C 151.585938 120.972656 148.15625 131.859375 109.242188 122.285156 Z M 83.839844 55.292969 L 83.839844 183.324219 C 83.839844 184.988281 82.476562 186.351562 80.816406 186.351562 L 77.917969 186.351562 C 76.253906 186.351562 74.890625 184.988281 74.890625 183.324219 L 74.890625 54.511719 C 74.890625 54.1875 74.941406 53.859375 75.042969 53.554688 C 77.589844 54.160156 80.511719 54.742188 83.839844 55.292969 Z M 260.761719 53.984375 C 260.789062 54.160156 260.8125 54.335938 260.8125 54.539062 L 260.8125 183.351562 C 260.8125 185.015625 259.453125 186.375 257.789062 186.375 L 254.917969 186.375 C 253.253906 186.375 251.890625 185.015625 251.890625 183.351562 L 251.890625 55.597656 C 255.167969 55.09375 258.167969 54.539062 260.761719 53.984375 Z M 260.761719 53.984375 " fill-opacity="1" fill-rule="nonzero"/></g><path fill="#b43a53" d="M 247.429688 66.332031 C 247.429688 62.957031 247.28125 59.605469 246.953125 56.304688 C 227.824219 58.847656 199.898438 60.4375 168.824219 60.4375 C 136.5625 60.4375 107.707031 58.722656 88.550781 56 C 88.222656 59.378906 88.046875 62.832031 88.046875 66.308594 C 88.046875 102.929688 106.875 136.625 132.734375 155.199219 C 132.734375 155.199219 160.933594 174.578125 161.742188 194.667969 C 162.496094 214.023438 135.984375 228.890625 135.984375 228.890625 C 107.78125 245.121094 88.074219 281.667969 88.074219 319.75 C 88.074219 323.351562 88.25 326.90625 88.601562 330.410156 C 88.527344 330.5625 88.5 330.710938 88.5 330.886719 C 88.5 336.003906 123.960938 340.164062 167.6875 340.164062 C 211.414062 340.164062 246.875 336.003906 246.875 330.886719 C 247.253906 327.234375 247.457031 323.527344 247.457031 319.75 C 247.457031 281.667969 227.746094 245.148438 199.546875 228.890625 C 199.546875 228.890625 174.492188 212.789062 173.308594 194.164062 C 172.125 175.539062 202.769531 155.222656 202.769531 155.222656 C 229.082031 137.078125 247.429688 102.929688 247.429688 66.332031 Z M 109.242188 122.285156 C 109.242188 122.285156 142.535156 109.933594 170.160156 113.867188 C 151.585938 120.972656 148.15625 131.859375 109.242188 122.285156 Z M 109.242188 122.285156 " fill-opacity="1" fill-rule="nonzero"/><path fill="#eb4e31" d="M 180.417969 110.84375 C 207.433594 105.046875 221.21875 117.597656 224.546875 121.226562 C 225.050781 121.78125 225.226562 122.585938 224.949219 123.292969 C 218.042969 141.792969 192.363281 156.183594 184.097656 164.625 C 178.753906 170.09375 172.199219 180.425781 169.074219 185.542969 C 168.269531 186.855469 166.351562 186.828125 165.597656 185.492188 C 161.890625 179.066406 152.414062 163.996094 140.722656 155.804688 C 117.382812 139.472656 109.242188 122.257812 109.242188 122.257812 C 154.355469 133.375 151.761719 116.992188 180.417969 110.84375 Z M 95.988281 327.914062 C 95.988281 327.914062 166.757812 343.390625 238.585938 327.335938 C 238.585938 327.335938 242.640625 304.171875 228.554688 287.589844 C 210.457031 266.320312 180.71875 271.460938 167.335938 255.785156 C 167.335938 255.785156 162.269531 261.707031 151.8125 265.261719 C 142.738281 268.308594 90.089844 277.585938 95.988281 327.914062 Z M 169.402344 189.800781 C 168.292969 189.777344 167.386719 190.660156 167.359375 191.742188 C 167.335938 192.851562 168.21875 193.757812 169.300781 193.785156 C 170.410156 193.808594 171.316406 192.925781 171.34375 191.84375 C 171.367188 190.734375 170.511719 189.828125 169.402344 189.800781 Z M 166 194.566406 C 164.917969 194.539062 164.007812 195.398438 163.984375 196.480469 C 163.957031 197.566406 164.816406 198.472656 165.898438 198.496094 C 166.984375 198.523438 167.890625 197.664062 167.914062 196.582031 C 167.941406 195.5 167.085938 194.589844 166 194.566406 Z M 168.621094 199.808594 C 167.539062 199.78125 166.628906 200.640625 166.605469 201.722656 C 166.578125 202.808594 167.4375 203.714844 168.519531 203.738281 C 169.605469 203.765625 170.511719 202.90625 170.535156 201.824219 C 170.5625 200.742188 169.707031 199.832031 168.621094 199.808594 Z M 166.855469 208.050781 C 166.125 208.023438 165.519531 208.605469 165.496094 209.335938 C 165.472656 210.066406 166.050781 210.671875 166.78125 210.695312 C 167.511719 210.722656 168.117188 210.140625 168.140625 209.410156 C 168.167969 208.652344 167.589844 208.050781 166.855469 208.050781 Z M 166.855469 208.050781 " fill-opacity="1" fill-rule="nonzero"/><g clip-path="url(#d884ce1f6d)"><path fill="#a1335f" d="M 257.261719 14.742188 L 263.007812 26.160156 C 263.007812 29.992188 220.664062 34.980469 168.167969 34.980469 C 115.671875 34.980469 72.925781 29.992188 72.925781 26.160156 L 77.816406 14.792969 C 77.992188 18.550781 115.671875 22.632812 168.167969 22.632812 C 220.640625 22.632812 257.132812 18.5 257.261719 14.742188 Z M 260.8125 328.796875 L 260.8125 332.929688 C 260.8125 334.59375 259.453125 335.953125 257.789062 335.953125 L 254.917969 335.953125 C 253.253906 335.953125 251.890625 334.59375 251.890625 332.929688 L 251.890625 327.160156 C 250.40625 326.929688 248.84375 326.703125 247.230469 326.476562 C 247.128906 327.941406 247.027344 329.402344 246.875 330.863281 C 246.875 335.980469 211.414062 340.136719 167.6875 340.136719 C 123.960938 340.136719 88.5 335.980469 88.5 330.863281 C 88.5 330.710938 88.527344 330.5625 88.601562 330.382812 C 88.476562 329.125 88.375 327.863281 88.300781 326.578125 C 86.761719 326.78125 85.277344 327.007812 83.839844 327.234375 L 83.839844 332.90625 C 83.839844 334.566406 82.476562 335.929688 80.816406 335.929688 L 77.917969 335.929688 C 76.253906 335.929688 74.890625 334.566406 74.890625 332.90625 L 74.890625 328.898438 C 67.355469 330.585938 63.097656 332.527344 63.097656 334.566406 C 63.097656 341.371094 110.152344 346.890625 168.191406 346.890625 C 226.234375 346.890625 273.289062 341.371094 273.289062 334.566406 C 273.265625 332.5 268.753906 330.535156 260.8125 328.796875 Z M 168.824219 40.222656 C 111.132812 40.222656 64.382812 34.703125 64.382812 27.898438 L 64.382812 48.136719 C 64.382812 54.941406 111.132812 60.460938 168.824219 60.460938 C 226.511719 60.460938 273.265625 54.941406 273.265625 48.136719 L 273.265625 27.925781 C 273.265625 34.703125 226.488281 40.222656 168.824219 40.222656 Z M 79.351562 184.382812 C 74.414062 184.382812 70.429688 188.390625 70.429688 193.304688 C 70.429688 198.246094 74.4375 202.226562 79.351562 202.226562 C 84.265625 202.226562 88.273438 198.21875 88.273438 193.304688 C 88.273438 188.390625 84.292969 184.382812 79.351562 184.382812 Z M 256.351562 184.382812 C 251.414062 184.382812 247.429688 188.390625 247.429688 193.304688 C 247.429688 198.246094 251.4375 202.226562 256.351562 202.226562 C 261.292969 202.226562 265.273438 198.21875 265.273438 193.304688 C 265.273438 188.390625 261.265625 184.382812 256.351562 184.382812 Z M 256.351562 184.382812 " fill-opacity="1" fill-rule="nonzero"/></g><g clip-path="url(#3e9dbb10fc)"><path fill="#020101" d="M 214.792969 113.691406 C 208.089844 110.3125 196.648438 107.035156 180.339844 110.515625 C 176.433594 111.347656 173.082031 112.378906 170.132812 113.511719 C 167.765625 113.1875 165.320312 112.957031 162.75 112.832031 C 155.113281 112.503906 146.570312 113.109375 137.34375 114.699219 C 121.644531 117.394531 109.269531 121.929688 109.144531 121.980469 C 109.117188 121.980469 109.117188 122.007812 109.09375 122.007812 C 109.09375 122.007812 109.066406 122.007812 109.066406 122.03125 C 109.042969 122.058594 109.015625 122.058594 109.015625 122.082031 C 109.015625 122.082031 109.015625 122.082031 109.015625 122.109375 C 108.992188 122.132812 108.992188 122.132812 108.992188 122.15625 C 108.992188 122.15625 108.992188 122.183594 108.992188 122.183594 C 108.992188 122.207031 108.992188 122.207031 108.992188 122.234375 C 108.992188 122.234375 108.992188 122.257812 108.992188 122.257812 C 108.992188 122.285156 108.992188 122.285156 108.992188 122.308594 C 108.992188 122.308594 108.992188 122.335938 108.992188 122.335938 C 108.992188 122.359375 108.992188 122.359375 109.015625 122.386719 C 109.015625 122.386719 109.015625 122.386719 109.015625 122.410156 C 109.042969 122.460938 111.132812 126.820312 116.046875 133.121094 C 120.585938 138.917969 128.523438 147.613281 140.597656 156.082031 C 152.441406 164.371094 162.019531 179.773438 165.570312 185.996094 C 165.949219 186.652344 166.628906 187.054688 167.386719 187.054688 C 167.386719 187.054688 167.410156 187.054688 167.410156 187.054688 C 168.167969 187.054688 168.824219 186.675781 169.226562 186.046875 C 171.949219 181.5625 178.878906 170.496094 184.398438 164.851562 C 186.742188 162.457031 190.523438 159.558594 194.882812 156.207031 C 205.972656 147.714844 221.167969 136.042969 225.707031 122.257812 C 225.730469 122.15625 225.730469 122.058594 225.65625 121.980469 C 225.453125 121.804688 222.101562 117.371094 214.792969 113.691406 Z M 137.445312 115.328125 C 146.570312 113.765625 158.011719 112.683594 168.875 114.015625 C 165.066406 115.554688 161.867188 117.242188 158.917969 118.804688 C 147.980469 124.601562 139.308594 129.191406 110.351562 122.207031 C 113.578125 121.097656 124.363281 117.570312 137.445312 115.328125 Z M 194.429688 155.726562 C 190.042969 159.082031 186.261719 162.003906 183.871094 164.421875 C 178.5 169.917969 172 180.125 168.621094 185.71875 C 168.34375 186.171875 167.867188 186.449219 167.335938 186.425781 C 166.808594 186.425781 166.328125 186.148438 166.074219 185.667969 C 162.496094 179.394531 152.871094 163.917969 140.898438 155.550781 C 120.359375 141.1875 111.535156 125.9375 109.847656 122.738281 C 123.28125 125.988281 133.285156 126.996094 141.300781 125.9375 C 148.710938 124.929688 153.800781 122.234375 159.222656 119.359375 C 164.691406 116.460938 170.863281 113.1875 180.464844 111.144531 C 196.597656 107.691406 207.863281 110.917969 214.492188 114.246094 C 220.992188 117.496094 224.394531 121.476562 225 122.234375 C 220.464844 135.765625 205.417969 147.308594 194.429688 155.726562 Z M 273.566406 27.898438 C 273.566406 25.402344 268.273438 23.386719 261.140625 21.800781 L 257.539062 14.640625 C 257.410156 13.9375 256.351562 12.902344 250.226562 11.792969 C 245.691406 10.964844 239.214844 10.230469 230.972656 9.578125 C 214.035156 8.292969 191.503906 7.558594 167.539062 7.558594 C 143.570312 7.558594 121.011719 8.292969 104.078125 9.601562 C 95.835938 10.230469 89.359375 10.988281 84.820312 11.820312 C 78.46875 12.980469 77.5625 14.039062 77.511719 14.769531 L 74.238281 22.378906 C 68.261719 23.839844 64.054688 25.679688 64.054688 27.898438 L 64.054688 48.136719 C 64.054688 50.40625 68.464844 52.296875 74.664062 53.808594 C 74.613281 54.035156 74.589844 54.285156 74.589844 54.539062 L 74.589844 183.351562 C 74.589844 184.003906 74.792969 184.636719 75.117188 185.140625 C 72.171875 186.675781 70.128906 189.777344 70.128906 193.332031 C 70.128906 197.085938 72.371094 200.3125 75.574219 201.75 C 74.96875 202.355469 74.5625 203.183594 74.5625 204.117188 L 74.5625 328.671875 C 67.734375 330.234375 62.769531 332.199219 62.769531 334.59375 L 62.769531 354.804688 C 62.769531 359.265625 79.65625 362.164062 93.820312 363.828125 C 113.679688 366.148438 140.089844 367.433594 168.167969 367.433594 C 196.242188 367.433594 222.65625 366.148438 242.515625 363.828125 C 256.679688 362.164062 273.566406 359.242188 273.566406 354.804688 L 273.566406 334.59375 C 273.566406 332.097656 268.273438 330.082031 261.117188 328.519531 L 261.117188 204.117188 C 261.117188 203.183594 260.738281 202.355469 260.109375 201.75 C 263.308594 200.3125 265.550781 197.0625 265.550781 193.332031 C 265.550781 189.777344 263.535156 186.675781 260.5625 185.140625 C 260.890625 184.609375 261.089844 184.003906 261.089844 183.351562 L 261.089844 54.511719 C 261.089844 54.414062 261.089844 54.3125 261.066406 54.210938 C 268.222656 52.625 273.515625 50.605469 273.515625 48.113281 L 273.515625 27.898438 C 273.566406 27.925781 273.566406 27.925781 273.566406 27.898438 Z M 104.128906 10.230469 C 121.0625 8.921875 143.59375 8.191406 167.539062 8.191406 C 191.480469 8.191406 214.011719 8.921875 230.949219 10.230469 C 255.09375 12.097656 256.855469 14.289062 256.933594 14.792969 C 256.882812 15.296875 255.824219 15.902344 253.429688 16.582031 C 252.570312 16.835938 251.488281 17.085938 250.128906 17.363281 C 245.617188 18.273438 238.988281 19.128906 230.921875 19.882812 C 213.433594 21.472656 190.976562 22.355469 167.714844 22.355469 C 161.515625 22.355469 155.390625 22.304688 149.441406 22.179688 C 132.734375 21.851562 117.054688 21.070312 104.101562 19.882812 C 96.0625 19.152344 89.410156 18.273438 84.898438 17.363281 C 79.804688 16.332031 78.496094 15.5 78.195312 15.070312 C 78.144531 14.996094 78.09375 14.894531 78.09375 14.820312 C 78.144531 14.339844 79.527344 12.121094 104.128906 10.230469 Z M 77.839844 15.550781 C 78.09375 15.800781 78.496094 16.078125 79.175781 16.382812 C 80.210938 16.859375 81.898438 17.363281 84.570312 17.917969 C 88.980469 18.828125 95.484375 19.707031 103.347656 20.4375 C 116.199219 21.625 132.152344 22.429688 149.46875 22.757812 C 155.390625 22.882812 161.4375 22.933594 167.539062 22.933594 C 167.613281 22.933594 167.664062 22.933594 167.738281 22.933594 C 167.890625 22.933594 168.015625 22.933594 168.167969 22.933594 C 192.464844 22.933594 215.273438 22.027344 232.382812 20.390625 C 240.097656 19.65625 246.449219 18.777344 250.730469 17.84375 C 251.539062 17.667969 252.269531 17.492188 252.898438 17.339844 C 255.648438 16.632812 256.804688 16.003906 257.285156 15.472656 L 262.679688 26.210938 C 262.453125 27.269531 256.480469 29.539062 235.234375 31.679688 C 216.179688 33.59375 192.363281 34.652344 168.167969 34.652344 C 143.949219 34.652344 120.054688 33.59375 100.902344 31.679688 C 79.429688 29.5625 73.429688 27.292969 73.226562 26.234375 Z M 70.757812 193.332031 C 70.757812 188.59375 74.613281 184.710938 79.378906 184.710938 C 84.140625 184.710938 87.996094 188.566406 87.996094 193.332031 C 87.996094 198.070312 84.140625 201.949219 79.378906 201.949219 C 74.613281 201.949219 70.757812 198.070312 70.757812 193.332031 Z M 75.195312 183.324219 L 75.195312 54.511719 C 75.195312 54.3125 75.21875 54.109375 75.269531 53.933594 C 77.789062 54.539062 80.613281 55.066406 83.511719 55.546875 L 83.511719 183.300781 C 83.511719 183.855469 83.335938 184.382812 83.03125 184.8125 C 81.898438 184.308594 80.664062 184.054688 79.351562 184.054688 C 78.042969 184.054688 76.808594 184.332031 75.671875 184.8125 C 75.371094 184.410156 75.195312 183.878906 75.195312 183.324219 Z M 100.421875 117.671875 C 108.359375 132.96875 119.449219 146.023438 132.503906 155.425781 C 132.53125 155.449219 132.53125 155.449219 132.554688 155.476562 C 132.632812 155.527344 139.664062 160.390625 146.71875 167.648438 C 153.195312 174.328125 161.011719 184.433594 161.414062 194.691406 C 161.792969 204.570312 154.835938 213.265625 148.914062 218.8125 C 142.484375 224.859375 135.859375 228.589844 135.808594 228.613281 C 135.78125 228.613281 135.78125 228.640625 135.757812 228.664062 C 121.820312 236.707031 109.847656 249.609375 101.152344 265.992188 C 92.382812 282.523438 87.71875 301.125 87.71875 319.75 C 87.71875 321.5625 87.796875 323.402344 87.871094 325.191406 C 87.898438 325.570312 87.898438 325.949219 87.921875 326.351562 C 86.636719 326.527344 85.375 326.703125 84.117188 326.90625 L 84.117188 204.117188 C 84.117188 203.183594 83.738281 202.355469 83.109375 201.75 C 86.308594 200.3125 88.550781 197.0625 88.550781 193.332031 C 88.550781 189.777344 86.535156 186.675781 83.5625 185.140625 C 83.890625 184.609375 84.089844 184.003906 84.089844 183.351562 L 84.089844 55.671875 C 85.425781 55.898438 86.789062 56.101562 88.148438 56.304688 C 87.847656 59.65625 87.667969 63.03125 87.667969 66.359375 C 87.746094 83.898438 92.128906 101.667969 100.421875 117.671875 Z M 247.28125 56.582031 C 248.691406 56.378906 250.128906 56.175781 251.539062 55.976562 L 251.539062 183.324219 C 251.539062 183.980469 251.742188 184.609375 252.066406 185.113281 C 249.121094 186.652344 247.078125 189.753906 247.078125 193.304688 C 247.078125 197.0625 249.320312 200.285156 252.523438 201.722656 C 251.917969 202.328125 251.511719 203.160156 251.511719 204.09375 L 251.511719 326.753906 C 250.179688 326.554688 248.84375 326.351562 247.480469 326.175781 C 247.605469 324.007812 247.683594 321.839844 247.683594 319.699219 C 247.683594 301.074219 243.046875 282.472656 234.25 265.941406 C 225.554688 249.558594 213.582031 236.65625 199.644531 228.613281 C 199.644531 228.613281 199.621094 228.589844 199.621094 228.589844 C 199.570312 228.539062 193.296875 224.507812 186.996094 218.230469 C 181.199219 212.484375 174.140625 203.613281 173.535156 194.085938 C 172.929688 184.585938 180.921875 174.578125 187.726562 167.875 C 195.136719 160.566406 202.769531 155.476562 202.847656 155.425781 C 202.871094 155.425781 202.871094 155.402344 202.898438 155.375 C 216.054688 146.300781 227.21875 133.296875 235.183594 117.773438 C 243.347656 101.820312 247.683594 84 247.683594 66.257812 C 247.734375 63.082031 247.582031 59.832031 247.28125 56.582031 Z M 234.679688 117.546875 C 226.765625 132.996094 215.648438 145.925781 202.542969 154.945312 C 202.519531 154.945312 202.519531 154.972656 202.492188 154.972656 C 201.789062 155.449219 194.453125 160.441406 187.320312 167.449219 C 180.417969 174.253906 172.328125 184.410156 172.929688 194.164062 C 173.535156 203.890625 180.695312 212.886719 186.589844 218.734375 C 192.613281 224.707031 198.585938 228.664062 199.242188 229.117188 C 199.269531 229.144531 199.292969 229.144531 199.320312 229.167969 C 213.179688 237.160156 225.074219 249.988281 233.71875 266.269531 C 242.441406 282.726562 247.078125 301.199219 247.078125 319.75 C 247.078125 323.429688 246.875 327.160156 246.5 330.835938 C 246.5 330.835938 246.5 330.863281 246.5 330.863281 C 246.5 331.695312 244.835938 334.617188 223.589844 337.113281 C 208.644531 338.851562 188.785156 339.835938 167.636719 339.835938 C 164.488281 339.835938 161.335938 339.808594 158.238281 339.757812 C 154.53125 339.710938 150.828125 339.632812 147.222656 339.507812 C 143.671875 339.40625 140.167969 339.253906 136.816406 339.078125 C 133.488281 338.902344 130.210938 338.726562 127.113281 338.5 C 123.988281 338.273438 121.089844 338.046875 118.242188 337.769531 C 115.394531 337.492188 112.796875 337.214844 110.300781 336.910156 C 107.808594 336.609375 105.539062 336.28125 103.421875 335.929688 C 101.277344 335.574219 99.414062 335.222656 97.726562 334.84375 C 95.988281 334.46875 94.574219 334.089844 93.316406 333.6875 C 92.382812 333.382812 91.300781 333.003906 90.339844 332.449219 C 89.433594 331.945312 88.878906 331.441406 88.753906 330.511719 C 88.703125 330.15625 88.703125 329.804688 88.679688 329.453125 C 88.652344 327.988281 88.578125 326.503906 88.527344 325.089844 C 88.449219 323.328125 88.375 321.488281 88.375 319.671875 C 88.375 301.148438 92.988281 282.648438 101.734375 266.191406 C 110.378906 249.886719 122.273438 237.058594 136.136719 229.09375 C 136.160156 229.09375 136.160156 229.070312 136.183594 229.070312 C 136.890625 228.664062 143.191406 224.984375 149.339844 219.214844 C 155.363281 213.570312 162.445312 204.722656 162.042969 194.617188 C 161.640625 184.15625 153.726562 173.898438 147.148438 167.144531 C 140.394531 160.1875 133.640625 155.425781 132.960938 154.945312 C 132.960938 154.945312 132.933594 154.921875 132.910156 154.921875 C 119.902344 145.570312 108.867188 132.59375 100.953125 117.34375 C 92.710938 101.417969 88.351562 83.773438 88.351562 66.285156 C 88.351562 62.980469 88.5 59.65625 88.804688 56.328125 C 90.84375 56.605469 92.910156 56.882812 94.902344 57.109375 C 114.636719 59.429688 140.871094 60.714844 168.796875 60.714844 C 196.699219 60.714844 222.957031 59.429688 242.691406 57.109375 C 244.003906 56.957031 245.3125 56.78125 246.648438 56.605469 C 246.925781 59.832031 247.078125 63.082031 247.078125 66.285156 C 247.101562 83.976562 242.820312 101.667969 234.679688 117.546875 Z M 75.195312 204.117188 C 75.195312 203.261719 75.597656 202.503906 76.226562 202 C 77.210938 202.355469 78.269531 202.554688 79.351562 202.554688 C 80.460938 202.554688 81.519531 202.355469 82.476562 202 C 83.109375 202.503906 83.511719 203.261719 83.511719 204.117188 L 83.511719 332.929688 C 83.511719 334.417969 82.300781 335.652344 80.789062 335.652344 L 77.917969 335.652344 C 76.429688 335.652344 75.195312 334.441406 75.195312 332.929688 Z M 272.9375 354.832031 C 272.9375 357.855469 261.542969 360.980469 242.441406 363.222656 C 222.605469 365.542969 196.21875 366.828125 168.167969 366.828125 C 140.117188 366.828125 113.730469 365.542969 93.894531 363.222656 C 74.792969 360.980469 63.398438 357.855469 63.398438 354.832031 L 63.398438 336.078125 C 63.425781 336.105469 63.449219 336.128906 63.476562 336.15625 C 63.5 336.179688 63.523438 336.207031 63.523438 336.230469 C 63.574219 336.28125 63.625 336.332031 63.652344 336.355469 C 63.675781 336.382812 63.675781 336.382812 63.703125 336.40625 C 63.777344 336.457031 63.828125 336.535156 63.902344 336.585938 C 63.929688 336.585938 63.929688 336.609375 63.953125 336.609375 C 64.003906 336.660156 64.078125 336.710938 64.128906 336.761719 C 64.15625 336.785156 64.179688 336.8125 64.207031 336.8125 C 64.257812 336.835938 64.308594 336.886719 64.355469 336.910156 C 64.382812 336.9375 64.433594 336.960938 64.457031 336.988281 C 64.507812 337.011719 64.558594 337.0625 64.609375 337.089844 C 64.632812 337.113281 64.683594 337.136719 64.710938 337.164062 C 64.761719 337.1875 64.8125 337.238281 64.859375 337.265625 C 64.910156 337.289062 64.9375 337.316406 64.988281 337.339844 C 65.039062 337.367188 65.113281 337.414062 65.164062 337.441406 C 65.214844 337.464844 65.238281 337.492188 65.289062 337.515625 C 65.363281 337.542969 65.414062 337.59375 65.492188 337.617188 C 65.542969 337.644531 65.566406 337.667969 65.617188 337.691406 C 65.691406 337.742188 65.769531 337.769531 65.871094 337.820312 C 65.894531 337.84375 65.917969 337.84375 65.96875 337.871094 C 66.070312 337.917969 66.195312 337.96875 66.296875 338.019531 C 66.347656 338.046875 66.375 338.046875 66.421875 338.070312 C 66.5 338.097656 66.574219 338.148438 66.675781 338.171875 C 66.726562 338.195312 66.777344 338.222656 66.828125 338.246094 C 66.902344 338.273438 66.976562 338.296875 67.054688 338.347656 C 67.105469 338.375 67.15625 338.398438 67.230469 338.425781 C 67.304688 338.449219 67.382812 338.472656 67.457031 338.5 C 67.507812 338.523438 67.582031 338.550781 67.632812 338.574219 C 67.710938 338.601562 67.785156 338.625 67.859375 338.652344 C 67.910156 338.675781 67.984375 338.703125 68.035156 338.726562 C 68.113281 338.75 68.1875 338.777344 68.261719 338.800781 C 68.3125 338.828125 68.390625 338.851562 68.441406 338.878906 C 68.515625 338.902344 68.617188 338.929688 68.691406 338.976562 C 68.742188 339.003906 68.816406 339.027344 68.867188 339.027344 C 68.96875 339.054688 69.09375 339.105469 69.195312 339.128906 C 69.246094 339.15625 69.273438 339.15625 69.320312 339.179688 C 69.472656 339.230469 69.625 339.28125 69.777344 339.332031 C 69.851562 339.355469 69.902344 339.382812 69.976562 339.382812 C 70.078125 339.40625 70.152344 339.433594 70.253906 339.457031 C 70.332031 339.484375 70.40625 339.507812 70.480469 339.53125 C 70.558594 339.558594 70.65625 339.582031 70.734375 339.609375 C 70.808594 339.632812 70.882812 339.660156 70.960938 339.683594 C 71.035156 339.710938 71.136719 339.734375 71.210938 339.761719 C 71.289062 339.785156 71.363281 339.808594 71.464844 339.835938 C 71.539062 339.859375 71.640625 339.886719 71.714844 339.910156 C 71.792969 339.9375 71.894531 339.960938 71.96875 339.988281 C 72.070312 340.011719 72.144531 340.035156 72.246094 340.0625 C 72.320312 340.085938 72.398438 340.113281 72.496094 340.136719 C 72.597656 340.164062 72.699219 340.1875 72.800781 340.214844 C 72.875 340.238281 72.953125 340.265625 73.027344 340.265625 C 73.152344 340.289062 73.277344 340.3125 73.40625 340.363281 C 73.503906 340.390625 73.632812 340.414062 73.734375 340.441406 C 73.859375 340.464844 73.960938 340.492188 74.085938 340.515625 C 74.160156 340.542969 74.261719 340.566406 74.335938 340.566406 C 74.4375 340.589844 74.539062 340.617188 74.640625 340.640625 C 74.742188 340.667969 74.816406 340.691406 74.917969 340.691406 C 75.019531 340.71875 75.117188 340.742188 75.195312 340.769531 C 75.296875 340.792969 75.394531 340.820312 75.472656 340.820312 C 75.574219 340.84375 75.671875 340.867188 75.75 340.867188 C 75.847656 340.894531 75.949219 340.917969 76.027344 340.917969 C 76.125 340.945312 76.226562 340.96875 76.304688 340.96875 C 76.402344 340.996094 76.503906 341.019531 76.605469 341.019531 C 76.707031 341.046875 76.808594 341.070312 76.90625 341.070312 C 77.007812 341.09375 77.109375 341.121094 77.210938 341.121094 C 77.3125 341.144531 77.414062 341.171875 77.511719 341.171875 C 77.613281 341.195312 77.6875 341.195312 77.789062 341.222656 C 77.917969 341.246094 78.042969 341.273438 78.167969 341.296875 C 78.34375 341.324219 78.496094 341.371094 78.671875 341.398438 C 78.773438 341.421875 78.875 341.421875 78.976562 341.449219 C 79.074219 341.472656 79.203125 341.5 79.300781 341.5 C 79.402344 341.523438 79.503906 341.523438 79.578125 341.550781 C 79.679688 341.574219 79.804688 341.597656 79.90625 341.597656 C 80.007812 341.625 80.109375 341.625 80.183594 341.648438 C 80.285156 341.675781 80.410156 341.699219 80.511719 341.699219 C 80.613281 341.726562 80.6875 341.726562 80.789062 341.75 C 80.890625 341.777344 81.015625 341.800781 81.117188 341.800781 C 81.21875 341.828125 81.320312 341.828125 81.394531 341.851562 C 81.496094 341.875 81.621094 341.875 81.722656 341.902344 C 81.824219 341.925781 81.921875 341.925781 82.023438 341.953125 C 82.125 341.976562 82.226562 341.976562 82.351562 342.003906 C 82.453125 342.027344 82.554688 342.027344 82.65625 342.054688 C 83.082031 342.128906 83.484375 342.179688 83.914062 342.253906 C 84.015625 342.28125 84.117188 342.28125 84.21875 342.304688 C 84.316406 342.332031 84.445312 342.332031 84.542969 342.355469 C 84.644531 342.378906 84.746094 342.378906 84.847656 342.40625 C 84.972656 342.429688 85.074219 342.429688 85.199219 342.457031 C 85.300781 342.480469 85.402344 342.480469 85.503906 342.507812 C 85.628906 342.53125 85.730469 342.53125 85.855469 342.558594 C 85.957031 342.582031 86.058594 342.582031 86.15625 342.609375 C 86.285156 342.632812 86.382812 342.632812 86.511719 342.65625 C 86.609375 342.683594 86.710938 342.683594 86.8125 342.707031 C 86.9375 342.734375 87.039062 342.734375 87.164062 342.757812 C 87.265625 342.785156 87.367188 342.785156 87.492188 342.808594 C 87.59375 342.835938 87.695312 342.835938 87.820312 342.859375 C 87.945312 342.882812 88.046875 342.882812 88.171875 342.910156 C 88.351562 342.933594 88.550781 342.960938 88.726562 342.984375 C 88.855469 343.011719 88.957031 343.011719 89.082031 343.035156 C 89.207031 343.0625 89.308594 343.0625 89.433594 343.085938 C 89.535156 343.113281 89.636719 343.113281 89.738281 343.136719 C 89.835938 343.160156 89.964844 343.160156 90.0625 343.1875 C 90.164062 343.210938 90.265625 343.210938 90.367188 343.238281 C 90.46875 343.261719 90.59375 343.261719 90.695312 343.289062 C 90.792969 343.3125 90.921875 343.3125 91.023438 343.339844 C 91.121094 343.363281 91.222656 343.363281 91.324219 343.386719 C 91.425781 343.414062 91.550781 343.414062 91.652344 343.4375 C 91.753906 343.4375 91.851562 343.464844 91.953125 343.464844 C 92.082031 343.488281 92.179688 343.488281 92.308594 343.515625 C 92.40625 343.515625 92.507812 343.539062 92.609375 343.539062 C 92.734375 343.566406 92.863281 343.566406 92.960938 343.589844 C 93.0625 343.589844 93.140625 343.617188 93.238281 343.617188 C 93.414062 343.640625 93.566406 343.664062 93.742188 343.664062 C 93.792969 343.664062 93.820312 343.664062 93.871094 343.691406 C 95.105469 343.84375 96.339844 343.96875 97.625 344.121094 C 117.007812 346.1875 141.855469 347.320312 168.21875 347.320312 C 196.292969 347.320312 222.707031 346.035156 242.566406 343.714844 C 243.019531 343.664062 243.449219 343.617188 243.902344 343.566406 C 243.902344 343.566406 243.925781 343.566406 243.925781 343.566406 C 244.128906 343.539062 244.332031 343.515625 244.53125 343.488281 C 244.558594 343.488281 244.582031 343.488281 244.609375 343.488281 C 244.808594 343.464844 244.984375 343.4375 245.1875 343.414062 C 245.214844 343.414062 245.238281 343.414062 245.261719 343.414062 C 245.464844 343.386719 245.640625 343.363281 245.84375 343.339844 C 245.867188 343.339844 245.894531 343.339844 245.945312 343.339844 C 246.144531 343.3125 246.347656 343.289062 246.546875 343.261719 C 246.574219 343.261719 246.574219 343.261719 246.597656 343.261719 C 247.480469 343.136719 248.386719 343.035156 249.269531 342.910156 C 249.296875 342.910156 249.347656 342.910156 249.371094 342.882812 C 249.546875 342.859375 249.75 342.835938 249.925781 342.808594 C 249.976562 342.808594 250.027344 342.785156 250.078125 342.785156 C 250.253906 342.757812 250.429688 342.734375 250.605469 342.707031 C 250.65625 342.707031 250.707031 342.683594 250.757812 342.683594 C 250.933594 342.65625 251.109375 342.632812 251.285156 342.605469 C 251.335938 342.605469 251.363281 342.605469 251.414062 342.582031 C 251.613281 342.558594 251.816406 342.53125 252.019531 342.480469 C 252.042969 342.480469 252.042969 342.480469 252.066406 342.480469 C 252.722656 342.378906 253.402344 342.28125 254.058594 342.152344 C 254.085938 342.152344 254.109375 342.152344 254.160156 342.128906 C 254.335938 342.101562 254.511719 342.078125 254.714844 342.027344 C 254.765625 342.027344 254.816406 342.003906 254.867188 342.003906 C 255.015625 341.976562 255.191406 341.953125 255.34375 341.925781 C 255.394531 341.925781 255.46875 341.902344 255.519531 341.902344 C 255.671875 341.875 255.824219 341.851562 255.972656 341.824219 C 256.023438 341.824219 256.101562 341.800781 256.152344 341.800781 C 256.300781 341.777344 256.453125 341.75 256.628906 341.726562 C 256.679688 341.726562 256.730469 341.699219 256.78125 341.699219 C 256.957031 341.675781 257.132812 341.625 257.308594 341.597656 C 257.335938 341.597656 257.359375 341.597656 257.386719 341.574219 C 257.8125 341.5 258.21875 341.421875 258.644531 341.320312 C 258.644531 341.320312 258.671875 341.320312 258.671875 341.320312 C 258.871094 341.296875 259.050781 341.246094 259.25 341.195312 C 259.300781 341.195312 259.351562 341.171875 259.375 341.171875 C 259.527344 341.144531 259.679688 341.121094 259.832031 341.070312 C 259.882812 341.070312 259.929688 341.042969 260.007812 341.042969 C 260.160156 341.019531 260.285156 340.996094 260.433594 340.945312 C 260.484375 340.945312 260.5625 340.917969 260.613281 340.917969 C 260.738281 340.894531 260.890625 340.867188 261.015625 340.816406 C 261.066406 340.792969 261.140625 340.792969 261.191406 340.765625 C 261.34375 340.742188 261.46875 340.71875 261.59375 340.667969 C 261.644531 340.667969 261.695312 340.640625 261.746094 340.640625 C 261.898438 340.617188 262.046875 340.566406 262.199219 340.539062 C 262.226562 340.539062 262.273438 340.515625 262.300781 340.515625 C 262.679688 340.441406 263.054688 340.339844 263.410156 340.238281 C 263.433594 340.238281 263.484375 340.214844 263.511719 340.214844 C 263.660156 340.1875 263.789062 340.136719 263.9375 340.113281 C 263.988281 340.085938 264.039062 340.085938 264.089844 340.0625 C 264.214844 340.035156 264.34375 340.011719 264.441406 339.960938 C 264.492188 339.9375 264.570312 339.9375 264.621094 339.910156 C 264.71875 339.886719 264.847656 339.859375 264.945312 339.808594 C 264.996094 339.785156 265.074219 339.785156 265.125 339.757812 C 265.222656 339.734375 265.351562 339.707031 265.449219 339.660156 C 265.5 339.632812 265.550781 339.632812 265.628906 339.609375 C 265.726562 339.582031 265.855469 339.53125 265.953125 339.507812 C 266.003906 339.480469 266.054688 339.480469 266.105469 339.457031 C 266.230469 339.433594 266.359375 339.382812 266.484375 339.355469 C 266.507812 339.355469 266.558594 339.332031 266.585938 339.332031 C 266.886719 339.230469 267.214844 339.128906 267.492188 339.027344 C 267.542969 339.003906 267.566406 339.003906 267.617188 338.976562 C 267.71875 338.953125 267.820312 338.902344 267.921875 338.878906 C 267.972656 338.851562 268.023438 338.851562 268.070312 338.828125 C 268.171875 338.800781 268.25 338.75 268.347656 338.726562 C 268.398438 338.699219 268.449219 338.675781 268.5 338.675781 C 268.574219 338.652344 268.675781 338.601562 268.753906 338.574219 C 268.804688 338.550781 268.851562 338.523438 268.902344 338.523438 C 268.980469 338.5 269.078125 338.449219 269.15625 338.421875 C 269.207031 338.398438 269.257812 338.375 269.308594 338.375 C 269.382812 338.347656 269.484375 338.296875 269.558594 338.273438 C 269.609375 338.246094 269.632812 338.246094 269.683594 338.222656 C 269.785156 338.171875 269.859375 338.144531 269.960938 338.097656 C 269.988281 338.097656 270.011719 338.070312 270.039062 338.070312 C 270.164062 338.019531 270.265625 337.96875 270.390625 337.917969 C 270.414062 337.917969 270.414062 337.894531 270.441406 337.894531 C 270.542969 337.84375 270.617188 337.792969 270.71875 337.769531 C 270.742188 337.742188 270.792969 337.742188 270.820312 337.71875 C 270.894531 337.691406 270.96875 337.640625 271.019531 337.617188 C 271.070312 337.59375 271.097656 337.566406 271.148438 337.542969 C 271.195312 337.515625 271.273438 337.464844 271.324219 337.441406 C 271.375 337.414062 271.398438 337.390625 271.449219 337.363281 C 271.5 337.339844 271.574219 337.289062 271.625 337.265625 C 271.652344 337.238281 271.699219 337.214844 271.726562 337.1875 C 271.777344 337.164062 271.828125 337.113281 271.878906 337.085938 C 271.902344 337.0625 271.953125 337.039062 271.976562 337.011719 C 272.027344 336.960938 272.078125 336.9375 272.128906 336.886719 C 272.15625 336.859375 272.179688 336.835938 272.207031 336.835938 C 272.253906 336.785156 272.332031 336.734375 272.382812 336.683594 C 272.40625 336.683594 272.40625 336.660156 272.433594 336.660156 C 272.507812 336.609375 272.582031 336.535156 272.632812 336.484375 C 272.660156 336.457031 272.660156 336.457031 272.683594 336.433594 C 272.734375 336.382812 272.785156 336.332031 272.808594 336.304688 C 272.835938 336.28125 272.859375 336.257812 272.859375 336.230469 C 272.886719 336.207031 272.910156 336.179688 272.9375 336.15625 Z M 261.140625 329.199219 C 268.726562 330.886719 272.960938 332.777344 272.960938 334.617188 C 272.960938 334.644531 272.960938 334.667969 272.960938 334.695312 C 272.960938 334.71875 272.960938 334.746094 272.960938 334.769531 C 272.960938 334.792969 272.960938 334.820312 272.960938 334.820312 C 272.960938 334.84375 272.960938 334.871094 272.9375 334.894531 C 272.9375 334.921875 272.9375 334.921875 272.910156 334.945312 C 272.910156 334.972656 272.886719 334.996094 272.886719 335.023438 C 272.886719 335.046875 272.859375 335.046875 272.859375 335.070312 C 272.859375 335.097656 272.835938 335.121094 272.835938 335.171875 C 272.835938 335.199219 272.808594 335.199219 272.808594 335.222656 C 272.785156 335.25 272.785156 335.273438 272.757812 335.324219 C 272.757812 335.347656 272.734375 335.347656 272.734375 335.375 C 272.710938 335.398438 272.683594 335.449219 272.660156 335.476562 C 272.660156 335.5 272.632812 335.5 272.632812 335.527344 C 272.609375 335.550781 272.582031 335.601562 272.558594 335.625 C 272.558594 335.625 272.53125 335.652344 272.53125 335.652344 C 272.507812 335.675781 272.484375 335.726562 272.433594 335.753906 C 272.433594 335.753906 272.40625 335.777344 272.40625 335.777344 C 272.382812 335.804688 272.332031 335.851562 272.304688 335.878906 C 272.304688 335.878906 272.28125 335.902344 272.28125 335.902344 C 272.230469 335.953125 272.207031 335.980469 272.15625 336.03125 C 272.15625 336.03125 272.128906 336.054688 272.128906 336.054688 C 272.078125 336.105469 272.027344 336.128906 272.003906 336.179688 C 271.976562 336.179688 271.976562 336.207031 271.953125 336.207031 C 271.902344 336.230469 271.851562 336.28125 271.800781 336.308594 C 271.800781 336.308594 271.777344 336.332031 271.777344 336.332031 C 271.726562 336.382812 271.675781 336.40625 271.601562 336.457031 C 271.601562 336.457031 271.574219 336.457031 271.574219 336.484375 C 271.523438 336.535156 271.449219 336.558594 271.375 336.609375 C 271.375 336.609375 271.375 336.609375 271.347656 336.609375 C 271.046875 336.785156 270.71875 336.988281 270.339844 337.164062 C 270.339844 337.164062 270.339844 337.164062 270.316406 337.164062 C 270.039062 337.289062 269.734375 337.441406 269.40625 337.566406 C 269.382812 337.566406 269.382812 337.566406 269.355469 337.59375 C 269.257812 337.640625 269.15625 337.667969 269.054688 337.71875 C 269.054688 337.71875 269.03125 337.71875 269.03125 337.742188 C 268.929688 337.792969 268.828125 337.820312 268.703125 337.871094 C 268.703125 337.871094 268.703125 337.871094 268.675781 337.871094 C 268.449219 337.96875 268.199219 338.046875 267.945312 338.148438 C 267.921875 338.148438 267.894531 338.171875 267.871094 338.171875 C 267.769531 338.195312 267.667969 338.246094 267.566406 338.273438 C 267.542969 338.273438 267.492188 338.296875 267.46875 338.296875 C 267.367188 338.324219 267.265625 338.375 267.140625 338.398438 C 267.089844 338.421875 267.039062 338.421875 266.988281 338.449219 C 266.886719 338.472656 266.785156 338.5 266.710938 338.550781 C 266.660156 338.574219 266.585938 338.574219 266.535156 338.601562 C 266.433594 338.625 266.359375 338.652344 266.257812 338.675781 C 266.207031 338.699219 266.15625 338.699219 266.132812 338.726562 C 266.03125 338.75 265.929688 338.800781 265.804688 338.828125 C 265.703125 338.851562 265.628906 338.878906 265.527344 338.902344 C 265.476562 338.929688 265.402344 338.929688 265.351562 338.953125 C 265.25 338.976562 265.148438 339.003906 265.046875 339.027344 C 264.996094 339.054688 264.921875 339.054688 264.871094 339.078125 C 264.746094 339.105469 264.621094 339.15625 264.492188 339.179688 C 264.441406 339.179688 264.417969 339.207031 264.367188 339.207031 C 264.242188 339.230469 264.140625 339.253906 264.015625 339.304688 C 263.964844 339.332031 263.914062 339.332031 263.863281 339.355469 C 263.738281 339.382812 263.609375 339.433594 263.484375 339.457031 C 263.433594 339.457031 263.382812 339.480469 263.332031 339.480469 C 263.183594 339.507812 263.03125 339.558594 262.878906 339.582031 C 262.855469 339.582031 262.804688 339.609375 262.78125 339.609375 C 262.601562 339.660156 262.425781 339.683594 262.226562 339.734375 C 257.183594 340.917969 250.503906 342.027344 242.441406 342.960938 C 222.605469 345.277344 196.21875 346.5625 168.167969 346.5625 C 140.117188 346.5625 113.730469 345.277344 93.894531 342.960938 C 86.511719 342.101562 80.285156 341.09375 75.421875 340.011719 C 73.910156 339.683594 72.523438 339.332031 71.289062 338.976562 C 71.113281 338.929688 70.960938 338.878906 70.808594 338.828125 C 70.429688 338.726562 70.054688 338.601562 69.675781 338.5 C 69.648438 338.5 69.648438 338.5 69.625 338.472656 C 68.640625 338.171875 67.757812 337.84375 67.003906 337.542969 C 66.976562 337.515625 66.929688 337.515625 66.902344 337.492188 C 65.917969 337.089844 65.136719 336.660156 64.585938 336.230469 C 64.457031 336.128906 64.332031 336.03125 64.230469 335.953125 C 64.128906 335.878906 64.03125 335.753906 63.929688 335.675781 C 63.574219 335.296875 63.398438 334.921875 63.398438 334.542969 C 63.398438 332.753906 67.382812 330.9375 74.5625 329.273438 L 74.5625 332.855469 C 74.5625 334.695312 76.078125 336.207031 77.917969 336.207031 L 80.789062 336.207031 C 82.628906 336.207031 84.140625 334.695312 84.140625 332.855469 L 84.140625 327.460938 C 85.375 327.257812 86.660156 327.082031 87.972656 326.882812 C 87.996094 327.738281 88.046875 328.59375 88.046875 329.453125 C 88.046875 329.828125 88.074219 330.183594 88.125 330.558594 C 88.25 331.769531 88.980469 332.398438 90.015625 332.980469 C 91.046875 333.558594 92.15625 333.9375 93.113281 334.265625 C 94.398438 334.667969 95.808594 335.046875 97.574219 335.449219 C 99.289062 335.828125 101.152344 336.179688 103.320312 336.535156 C 105.464844 336.886719 107.707031 337.1875 110.226562 337.515625 C 112.746094 337.820312 115.34375 338.097656 118.191406 338.375 C 121.039062 338.652344 123.9375 338.878906 127.085938 339.105469 C 130.1875 339.332031 133.464844 339.507812 136.816406 339.683594 C 140.191406 339.859375 143.695312 339.988281 147.25 340.113281 C 150.851562 340.214844 154.558594 340.3125 158.289062 340.363281 C 161.386719 340.414062 164.5625 340.441406 167.6875 340.441406 C 188.859375 340.441406 208.746094 339.480469 223.714844 337.71875 C 234.402344 336.457031 247.128906 334.265625 247.179688 330.863281 C 247.304688 329.527344 247.429688 328.167969 247.507812 326.832031 C 248.917969 327.03125 250.253906 327.207031 251.5625 327.410156 L 251.5625 332.90625 C 251.5625 334.746094 253.078125 336.257812 254.917969 336.257812 L 257.789062 336.257812 C 259.628906 336.257812 261.140625 334.746094 261.140625 332.90625 Z M 260.511719 204.117188 L 260.511719 332.929688 C 260.511719 334.417969 259.300781 335.652344 257.789062 335.652344 L 254.917969 335.652344 C 253.429688 335.652344 252.195312 334.441406 252.195312 332.929688 L 252.195312 204.117188 C 252.195312 203.261719 252.597656 202.503906 253.226562 202 C 254.210938 202.355469 255.269531 202.554688 256.351562 202.554688 C 257.4375 202.554688 258.519531 202.355469 259.476562 202 C 260.109375 202.503906 260.511719 203.261719 260.511719 204.117188 Z M 264.945312 193.332031 C 264.945312 198.070312 261.089844 201.949219 256.328125 201.949219 C 251.5625 201.949219 247.707031 198.09375 247.707031 193.332031 C 247.707031 188.59375 251.5625 184.710938 256.328125 184.710938 C 261.089844 184.710938 264.945312 188.566406 264.945312 193.332031 Z M 252.195312 183.324219 L 252.195312 55.875 C 255.066406 55.421875 257.890625 54.917969 260.484375 54.363281 C 260.484375 54.414062 260.484375 54.464844 260.484375 54.511719 L 260.484375 183.324219 C 260.484375 183.878906 260.308594 184.410156 260.007812 184.835938 C 258.871094 184.332031 257.636719 184.082031 256.328125 184.082031 C 255.015625 184.082031 253.78125 184.359375 252.648438 184.835938 C 252.371094 184.410156 252.195312 183.878906 252.195312 183.324219 Z M 272.9375 48.136719 C 272.9375 51.160156 261.59375 54.285156 242.617188 56.53125 C 222.910156 58.847656 196.699219 60.132812 168.796875 60.132812 C 140.898438 60.132812 114.6875 58.847656 94.980469 56.53125 C 76.027344 54.285156 64.683594 51.136719 64.683594 48.136719 L 64.683594 29.386719 C 64.710938 29.410156 64.734375 29.4375 64.761719 29.460938 C 64.785156 29.488281 64.8125 29.511719 64.8125 29.539062 C 64.859375 29.585938 64.886719 29.613281 64.9375 29.664062 C 64.960938 29.6875 64.988281 29.714844 64.988281 29.714844 C 65.0625 29.765625 65.113281 29.839844 65.1875 29.890625 C 65.214844 29.890625 65.214844 29.914062 65.238281 29.914062 C 65.289062 29.964844 65.363281 30.015625 65.414062 30.042969 C 65.441406 30.066406 65.464844 30.09375 65.515625 30.117188 C 65.566406 30.140625 65.617188 30.191406 65.667969 30.21875 C 65.691406 30.242188 65.742188 30.269531 65.769531 30.292969 C 65.820312 30.320312 65.871094 30.367188 65.917969 30.394531 C 65.96875 30.417969 65.996094 30.445312 66.046875 30.46875 C 66.097656 30.496094 66.148438 30.519531 66.195312 30.570312 C 66.246094 30.597656 66.273438 30.621094 66.324219 30.644531 C 66.375 30.671875 66.421875 30.695312 66.472656 30.746094 C 66.523438 30.773438 66.574219 30.796875 66.625 30.824219 C 66.675781 30.847656 66.726562 30.875 66.800781 30.921875 C 66.851562 30.949219 66.902344 30.972656 66.953125 31 C 67.003906 31.023438 67.078125 31.050781 67.128906 31.101562 C 67.179688 31.125 67.230469 31.152344 67.28125 31.175781 C 67.382812 31.226562 67.507812 31.277344 67.609375 31.328125 C 67.660156 31.351562 67.710938 31.378906 67.757812 31.402344 C 67.835938 31.425781 67.886719 31.453125 67.960938 31.476562 C 68.011719 31.503906 68.085938 31.527344 68.136719 31.554688 C 68.1875 31.578125 68.261719 31.605469 68.3125 31.628906 C 68.390625 31.65625 68.441406 31.679688 68.515625 31.703125 C 68.566406 31.730469 68.640625 31.753906 68.691406 31.78125 C 68.769531 31.804688 68.816406 31.832031 68.894531 31.855469 C 68.945312 31.882812 69.019531 31.90625 69.09375 31.933594 C 69.171875 31.957031 69.246094 31.980469 69.320312 32.007812 C 69.398438 32.03125 69.449219 32.058594 69.523438 32.082031 C 69.597656 32.109375 69.675781 32.132812 69.75 32.160156 C 69.824219 32.183594 69.875 32.207031 69.953125 32.234375 C 70.027344 32.257812 70.101562 32.285156 70.179688 32.308594 C 70.230469 32.335938 70.304688 32.359375 70.355469 32.359375 C 70.53125 32.410156 70.707031 32.484375 70.910156 32.535156 C 70.960938 32.5625 70.984375 32.5625 71.035156 32.585938 C 71.113281 32.613281 71.210938 32.636719 71.289062 32.664062 C 71.363281 32.6875 71.414062 32.714844 71.488281 32.714844 C 71.566406 32.738281 71.664062 32.761719 71.765625 32.789062 C 71.84375 32.8125 71.894531 32.839844 71.96875 32.839844 C 72.070312 32.863281 72.144531 32.890625 72.246094 32.914062 C 72.320312 32.941406 72.398438 32.964844 72.445312 32.964844 C 72.546875 32.988281 72.625 33.015625 72.722656 33.039062 C 72.800781 33.066406 72.875 33.089844 72.953125 33.089844 C 73.050781 33.117188 73.152344 33.140625 73.226562 33.167969 C 73.304688 33.191406 73.378906 33.21875 73.457031 33.21875 C 73.554688 33.242188 73.65625 33.265625 73.757812 33.292969 C 73.832031 33.316406 73.910156 33.316406 73.960938 33.34375 C 74.058594 33.367188 74.160156 33.394531 74.261719 33.417969 C 74.3125 33.445312 74.386719 33.445312 74.4375 33.46875 C 74.664062 33.519531 74.890625 33.570312 75.117188 33.644531 C 75.167969 33.644531 75.21875 33.671875 75.269531 33.671875 C 75.371094 33.695312 75.496094 33.722656 75.597656 33.746094 C 75.671875 33.773438 75.75 33.773438 75.824219 33.796875 C 75.925781 33.820312 76.027344 33.847656 76.152344 33.871094 C 76.226562 33.898438 76.304688 33.898438 76.402344 33.921875 C 76.503906 33.949219 76.605469 33.972656 76.707031 34 C 76.78125 34.023438 76.882812 34.023438 76.957031 34.046875 C 77.058594 34.074219 77.183594 34.097656 77.285156 34.125 C 77.363281 34.148438 77.4375 34.148438 77.539062 34.175781 C 77.640625 34.199219 77.765625 34.226562 77.867188 34.25 C 77.941406 34.277344 78.042969 34.277344 78.117188 34.300781 C 78.21875 34.324219 78.34375 34.351562 78.445312 34.375 C 78.519531 34.402344 78.621094 34.402344 78.699219 34.425781 C 78.824219 34.453125 78.925781 34.476562 79.050781 34.503906 C 79.101562 34.503906 79.152344 34.527344 79.203125 34.527344 C 79.453125 34.578125 79.679688 34.628906 79.933594 34.679688 C 80.007812 34.703125 80.109375 34.703125 80.183594 34.730469 C 80.285156 34.753906 80.410156 34.78125 80.511719 34.78125 C 80.613281 34.804688 80.6875 34.804688 80.789062 34.828125 C 80.890625 34.855469 80.992188 34.878906 81.117188 34.878906 C 81.21875 34.90625 81.320312 34.90625 81.417969 34.929688 C 81.519531 34.957031 81.621094 34.980469 81.746094 34.980469 C 81.847656 35.007812 81.949219 35.007812 82.023438 35.03125 C 82.125 35.058594 82.25 35.082031 82.351562 35.082031 C 82.453125 35.105469 82.554688 35.105469 82.65625 35.132812 C 82.753906 35.15625 82.855469 35.15625 82.980469 35.183594 C 83.082031 35.207031 83.183594 35.207031 83.285156 35.234375 C 83.386719 35.257812 83.484375 35.257812 83.613281 35.285156 C 83.714844 35.308594 83.8125 35.308594 83.941406 35.335938 C 84.039062 35.359375 84.140625 35.359375 84.242188 35.382812 C 84.445312 35.410156 84.644531 35.460938 84.847656 35.484375 C 84.921875 35.511719 85.023438 35.511719 85.097656 35.535156 C 85.226562 35.5625 85.351562 35.585938 85.476562 35.585938 C 85.578125 35.609375 85.679688 35.609375 85.78125 35.636719 C 85.878906 35.660156 86.007812 35.660156 86.105469 35.6875 C 86.207031 35.710938 86.308594 35.710938 86.410156 35.738281 C 86.511719 35.761719 86.636719 35.761719 86.738281 35.789062 C 86.839844 35.8125 86.9375 35.8125 87.039062 35.839844 C 87.164062 35.863281 87.265625 35.863281 87.390625 35.886719 C 87.492188 35.914062 87.59375 35.914062 87.667969 35.9375 C 87.796875 35.964844 87.921875 35.964844 88.023438 35.988281 C 88.125 36.015625 88.199219 36.015625 88.300781 36.039062 C 88.425781 36.066406 88.550781 36.066406 88.679688 36.089844 C 88.753906 36.089844 88.855469 36.117188 88.929688 36.117188 C 89.082031 36.140625 89.257812 36.164062 89.410156 36.191406 C 89.460938 36.191406 89.507812 36.214844 89.558594 36.214844 C 89.761719 36.242188 89.988281 36.265625 90.191406 36.292969 C 90.265625 36.292969 90.316406 36.316406 90.390625 36.316406 C 90.542969 36.34375 90.695312 36.367188 90.84375 36.367188 C 90.921875 36.367188 90.996094 36.394531 91.070312 36.394531 C 91.199219 36.417969 91.347656 36.417969 91.476562 36.441406 C 91.550781 36.441406 91.652344 36.46875 91.726562 36.46875 C 91.851562 36.492188 91.980469 36.492188 92.128906 36.519531 C 92.207031 36.519531 92.308594 36.542969 92.382812 36.542969 C 92.507812 36.570312 92.632812 36.570312 92.785156 36.59375 C 92.863281 36.59375 92.960938 36.621094 93.039062 36.621094 C 93.164062 36.644531 93.316406 36.644531 93.441406 36.667969 C 93.515625 36.667969 93.59375 36.695312 93.667969 36.695312 C 93.820312 36.71875 93.96875 36.71875 94.097656 36.746094 C 94.171875 36.746094 94.222656 36.769531 94.296875 36.769531 C 94.5 36.796875 94.726562 36.820312 94.929688 36.847656 C 95.632812 36.921875 96.339844 37.023438 97.070312 37.097656 C 116.550781 39.265625 141.90625 40.476562 168.824219 40.476562 C 196.722656 40.476562 222.957031 39.191406 242.71875 36.871094 C 243.144531 36.820312 243.601562 36.769531 244.027344 36.71875 C 244.054688 36.71875 244.054688 36.71875 244.078125 36.71875 C 244.28125 36.695312 244.480469 36.667969 244.683594 36.644531 C 244.707031 36.644531 244.757812 36.644531 244.785156 36.621094 C 244.960938 36.59375 245.164062 36.570312 245.339844 36.542969 C 245.363281 36.542969 245.414062 36.542969 245.441406 36.519531 C 245.617188 36.492188 245.816406 36.46875 245.996094 36.441406 C 246.019531 36.441406 246.070312 36.441406 246.09375 36.417969 C 246.296875 36.394531 246.472656 36.367188 246.675781 36.34375 C 246.699219 36.34375 246.726562 36.34375 246.75 36.34375 C 247.40625 36.265625 248.085938 36.164062 248.742188 36.066406 C 248.765625 36.066406 248.792969 36.066406 248.816406 36.066406 C 248.992188 36.039062 249.195312 36.015625 249.371094 35.988281 C 249.421875 35.988281 249.472656 35.964844 249.523438 35.964844 C 249.699219 35.9375 249.851562 35.914062 250.027344 35.886719 C 250.078125 35.886719 250.128906 35.863281 250.203125 35.863281 C 250.355469 35.839844 250.53125 35.8125 250.683594 35.789062 C 250.730469 35.789062 250.808594 35.761719 250.859375 35.761719 C 251.007812 35.738281 251.1875 35.710938 251.335938 35.6875 C 251.386719 35.6875 251.464844 35.660156 251.515625 35.660156 C 251.691406 35.636719 251.839844 35.609375 252.019531 35.585938 C 252.066406 35.585938 252.117188 35.5625 252.144531 35.5625 C 252.570312 35.484375 253.027344 35.433594 253.453125 35.359375 C 253.480469 35.359375 253.480469 35.359375 253.503906 35.359375 C 253.707031 35.335938 253.882812 35.285156 254.085938 35.257812 C 254.136719 35.257812 254.210938 35.234375 254.261719 35.234375 C 254.410156 35.207031 254.5625 35.183594 254.714844 35.15625 C 254.789062 35.15625 254.867188 35.132812 254.917969 35.132812 C 255.042969 35.105469 255.191406 35.082031 255.320312 35.058594 C 255.394531 35.03125 255.46875 35.03125 255.546875 35.007812 C 255.671875 34.980469 255.824219 34.957031 255.949219 34.929688 C 256.023438 34.90625 256.101562 34.90625 256.175781 34.878906 C 256.300781 34.855469 256.453125 34.828125 256.578125 34.804688 C 256.65625 34.78125 256.730469 34.78125 256.804688 34.753906 C 256.957031 34.730469 257.082031 34.703125 257.234375 34.679688 C 257.308594 34.679688 257.359375 34.652344 257.4375 34.652344 C 257.613281 34.628906 257.8125 34.578125 257.992188 34.554688 C 258.015625 34.554688 258.015625 34.554688 258.042969 34.554688 C 258.242188 34.503906 258.445312 34.476562 258.644531 34.425781 C 258.695312 34.425781 258.773438 34.402344 258.824219 34.402344 C 258.949219 34.375 259.101562 34.351562 259.226562 34.324219 C 259.300781 34.300781 259.378906 34.300781 259.453125 34.277344 C 259.578125 34.25 259.703125 34.226562 259.804688 34.199219 C 259.882812 34.175781 259.957031 34.175781 260.058594 34.148438 C 260.160156 34.125 260.285156 34.097656 260.386719 34.074219 C 260.460938 34.046875 260.5625 34.046875 260.636719 34.023438 C 260.738281 34 260.863281 33.972656 260.964844 33.949219 C 261.039062 33.921875 261.117188 33.921875 261.21875 33.898438 C 261.316406 33.871094 261.445312 33.847656 261.542969 33.820312 C 261.621094 33.796875 261.695312 33.796875 261.769531 33.773438 C 261.898438 33.746094 262 33.722656 262.125 33.695312 C 262.199219 33.671875 262.25 33.671875 262.324219 33.644531 C 262.503906 33.59375 262.652344 33.570312 262.828125 33.519531 C 262.878906 33.519531 262.90625 33.496094 262.957031 33.496094 C 263.105469 33.46875 263.257812 33.417969 263.382812 33.394531 C 263.460938 33.367188 263.511719 33.367188 263.585938 33.34375 C 263.6875 33.316406 263.789062 33.292969 263.914062 33.265625 C 263.988281 33.242188 264.066406 33.21875 264.140625 33.21875 C 264.242188 33.191406 264.34375 33.167969 264.441406 33.140625 C 264.519531 33.117188 264.59375 33.089844 264.667969 33.089844 C 264.769531 33.066406 264.847656 33.039062 264.945312 33.015625 C 265.023438 32.988281 265.097656 32.964844 265.171875 32.964844 C 265.273438 32.941406 265.351562 32.914062 265.449219 32.890625 C 265.527344 32.863281 265.601562 32.839844 265.679688 32.839844 C 265.777344 32.8125 265.855469 32.789062 265.953125 32.761719 C 266.03125 32.738281 266.082031 32.714844 266.15625 32.714844 C 266.257812 32.6875 266.359375 32.664062 266.460938 32.613281 C 266.507812 32.585938 266.558594 32.585938 266.609375 32.5625 C 266.761719 32.511719 266.914062 32.460938 267.0625 32.410156 C 267.113281 32.386719 267.140625 32.386719 267.191406 32.359375 C 267.289062 32.335938 267.390625 32.285156 267.492188 32.257812 C 267.542969 32.234375 267.617188 32.207031 267.667969 32.207031 C 267.746094 32.183594 267.84375 32.160156 267.921875 32.109375 C 267.972656 32.082031 268.046875 32.058594 268.097656 32.03125 C 268.171875 32.007812 268.25 31.980469 268.324219 31.957031 C 268.375 31.933594 268.449219 31.90625 268.5 31.882812 C 268.574219 31.855469 268.652344 31.832031 268.726562 31.804688 C 268.777344 31.78125 268.851562 31.753906 268.902344 31.730469 C 268.980469 31.703125 269.054688 31.679688 269.128906 31.65625 C 269.179688 31.628906 269.230469 31.605469 269.308594 31.578125 C 269.382812 31.554688 269.457031 31.527344 269.535156 31.476562 C 269.585938 31.453125 269.632812 31.425781 269.683594 31.425781 C 269.761719 31.402344 269.863281 31.351562 269.9375 31.300781 C 269.960938 31.277344 270.011719 31.277344 270.039062 31.25 C 270.164062 31.199219 270.265625 31.148438 270.367188 31.101562 C 270.390625 31.074219 270.441406 31.074219 270.464844 31.050781 C 270.542969 31.023438 270.617188 30.972656 270.691406 30.949219 C 270.742188 30.921875 270.769531 30.898438 270.820312 30.875 C 270.894531 30.847656 270.945312 30.796875 270.996094 30.773438 C 271.046875 30.746094 271.070312 30.722656 271.121094 30.695312 C 271.171875 30.671875 271.246094 30.621094 271.296875 30.597656 C 271.347656 30.570312 271.375 30.546875 271.425781 30.519531 C 271.472656 30.496094 271.523438 30.445312 271.574219 30.417969 C 271.601562 30.394531 271.652344 30.367188 271.675781 30.34375 C 271.726562 30.320312 271.777344 30.269531 271.828125 30.242188 C 271.851562 30.21875 271.902344 30.191406 271.929688 30.167969 C 271.980469 30.117188 272.027344 30.09375 272.078125 30.042969 C 272.105469 30.015625 272.128906 29.992188 272.15625 29.992188 C 272.230469 29.941406 272.28125 29.890625 272.355469 29.839844 C 272.355469 29.839844 272.382812 29.839844 272.382812 29.816406 C 272.457031 29.765625 272.507812 29.6875 272.582031 29.636719 C 272.609375 29.613281 272.609375 29.613281 272.632812 29.585938 C 272.683594 29.539062 272.734375 29.511719 272.761719 29.460938 C 272.785156 29.4375 272.808594 29.410156 272.808594 29.386719 C 272.835938 29.359375 272.859375 29.335938 272.886719 29.3125 L 272.886719 48.136719 Z M 272.9375 28 C 272.9375 28.023438 272.9375 28.050781 272.9375 28.050781 C 272.9375 28.074219 272.9375 28.125 272.910156 28.152344 C 272.910156 28.175781 272.910156 28.175781 272.910156 28.203125 C 272.910156 28.226562 272.886719 28.277344 272.886719 28.300781 C 272.886719 28.328125 272.886719 28.328125 272.886719 28.351562 C 272.859375 28.402344 272.859375 28.429688 272.835938 28.480469 C 272.835938 28.480469 272.835938 28.480469 272.835938 28.503906 C 272.808594 28.554688 272.785156 28.605469 272.757812 28.628906 C 271.148438 31.425781 260.160156 34.25 242.640625 36.316406 C 222.933594 38.636719 196.722656 39.921875 168.824219 39.921875 C 142.257812 39.921875 117.234375 38.761719 97.875 36.644531 C 96.917969 36.542969 95.960938 36.441406 95.003906 36.316406 C 79 34.425781 68.414062 31.90625 65.515625 29.335938 C 65.464844 29.285156 65.414062 29.234375 65.363281 29.183594 C 65.265625 29.082031 65.1875 28.984375 65.113281 28.90625 C 64.835938 28.578125 64.710938 28.253906 64.710938 27.925781 C 64.710938 26.3125 67.960938 24.648438 73.933594 23.109375 L 72.675781 26.058594 C 72.648438 26.109375 72.648438 26.136719 72.648438 26.183594 C 72.648438 26.917969 73.457031 28.050781 80.410156 29.488281 C 85.300781 30.496094 92.382812 31.503906 100.875 32.335938 C 120.054688 34.25 143.972656 35.308594 168.21875 35.308594 C 192.4375 35.308594 216.28125 34.25 235.359375 32.335938 C 243.75 31.476562 250.78125 30.496094 255.621094 29.488281 C 262.503906 28.050781 263.308594 26.917969 263.308594 26.183594 C 263.308594 26.136719 263.308594 26.085938 263.285156 26.035156 L 261.542969 22.582031 C 268.878906 24.246094 272.960938 26.109375 272.960938 27.925781 C 272.9375 27.949219 272.9375 27.976562 272.9375 28 Z M 164.386719 194.894531 C 163.957031 195.320312 163.707031 195.875 163.679688 196.480469 C 163.65625 197.085938 163.882812 197.664062 164.3125 198.121094 C 164.738281 198.546875 165.292969 198.800781 165.898438 198.824219 C 165.925781 198.824219 165.925781 198.824219 165.949219 198.824219 C 167.183594 198.824219 168.191406 197.84375 168.21875 196.605469 C 168.242188 196.003906 168.015625 195.421875 167.589844 194.96875 C 167.160156 194.539062 166.605469 194.289062 166 194.261719 C 165.394531 194.238281 164.816406 194.464844 164.386719 194.894531 Z M 167.613281 196.558594 C 167.589844 197.464844 166.832031 198.195312 165.925781 198.167969 C 165.496094 198.167969 165.066406 197.96875 164.765625 197.664062 C 164.464844 197.339844 164.285156 196.933594 164.3125 196.480469 C 164.3125 196.054688 164.511719 195.625 164.816406 195.320312 C 165.117188 195.019531 165.519531 194.867188 165.949219 194.867188 C 165.976562 194.867188 165.976562 194.867188 166 194.867188 C 166.429688 194.867188 166.855469 195.070312 167.160156 195.371094 C 167.460938 195.699219 167.613281 196.128906 167.613281 196.558594 Z M 165.699219 208.175781 C 165.371094 208.476562 165.195312 208.882812 165.195312 209.308594 C 165.195312 209.738281 165.34375 210.167969 165.648438 210.46875 C 165.949219 210.796875 166.351562 210.972656 166.78125 210.972656 C 166.808594 210.972656 166.808594 210.972656 166.832031 210.972656 C 167.261719 210.972656 167.664062 210.820312 167.964844 210.519531 C 168.292969 210.21875 168.46875 209.8125 168.46875 209.386719 C 168.46875 208.957031 168.320312 208.527344 168.015625 208.226562 C 167.714844 207.898438 167.3125 207.722656 166.882812 207.722656 C 166.429688 207.722656 166 207.871094 165.699219 208.175781 Z M 167.839844 209.386719 C 167.839844 209.664062 167.714844 209.914062 167.539062 210.089844 C 167.335938 210.265625 167.085938 210.367188 166.832031 210.367188 C 166.554688 210.367188 166.300781 210.242188 166.125 210.066406 C 165.949219 209.890625 165.847656 209.613281 165.847656 209.359375 C 165.847656 208.804688 166.300781 208.378906 166.855469 208.378906 C 166.855469 208.378906 166.882812 208.378906 166.882812 208.378906 C 167.160156 208.378906 167.410156 208.503906 167.589844 208.679688 C 167.738281 208.855469 167.839844 209.109375 167.839844 209.386719 Z M 171.671875 191.84375 C 171.695312 190.582031 170.6875 189.523438 169.429688 189.476562 C 169.402344 189.476562 169.402344 189.476562 169.378906 189.476562 C 168.140625 189.476562 167.109375 190.484375 167.085938 191.71875 C 167.058594 192.324219 167.285156 192.925781 167.714844 193.355469 C 168.140625 193.808594 168.722656 194.0625 169.328125 194.0625 C 169.351562 194.0625 169.351562 194.0625 169.378906 194.0625 C 169.980469 194.0625 170.535156 193.835938 170.964844 193.433594 C 171.394531 193.027344 171.644531 192.449219 171.671875 191.84375 Z M 169.328125 193.457031 C 168.875 193.457031 168.46875 193.253906 168.140625 192.925781 C 167.839844 192.601562 167.664062 192.171875 167.6875 191.742188 C 167.714844 190.835938 168.445312 190.105469 169.351562 190.105469 C 169.378906 190.105469 169.378906 190.105469 169.402344 190.105469 C 170.335938 190.128906 171.066406 190.886719 171.039062 191.820312 C 171.039062 192.273438 170.839844 192.675781 170.511719 193.003906 C 170.183594 193.304688 169.753906 193.480469 169.328125 193.457031 Z M 167.5625 255.558594 C 167.4375 255.40625 167.210938 255.40625 167.085938 255.558594 C 167.035156 255.605469 161.96875 261.453125 151.710938 264.933594 C 150.878906 265.210938 149.644531 265.5625 148.105469 265.992188 C 140.46875 268.109375 126.253906 272.066406 114.335938 281.289062 C 99.667969 292.65625 93.367188 308.355469 95.660156 327.941406 C 95.683594 328.066406 95.785156 328.191406 95.910156 328.214844 C 96.085938 328.265625 113.929688 332.125 140.320312 333.964844 C 148.308594 334.515625 157.609375 334.921875 167.839844 334.921875 C 188.835938 334.921875 213.660156 333.207031 238.636719 327.636719 C 238.761719 327.613281 238.863281 327.511719 238.886719 327.386719 C 238.886719 327.335938 239.894531 321.460938 239.164062 313.648438 C 237.929688 300.570312 232.839844 292.152344 228.78125 287.386719 C 218.976562 275.871094 205.519531 271.964844 193.671875 268.535156 C 183.390625 265.539062 173.6875 262.714844 167.5625 255.558594 Z M 228.300781 287.765625 C 235.535156 296.257812 237.855469 306.542969 238.535156 313.675781 C 239.1875 320.605469 238.457031 325.972656 238.308594 327.058594 C 201.308594 335.296875 164.640625 335.023438 140.367188 333.332031 C 115.59375 331.59375 98.382812 328.089844 96.265625 327.664062 C 94.070312 308.40625 100.269531 292.984375 114.710938 281.816406 C 126.53125 272.667969 140.671875 268.738281 148.257812 266.621094 C 149.820312 266.191406 151.03125 265.839844 151.886719 265.5625 C 159.875 262.839844 165.292969 258.457031 167.285156 256.261719 C 173.535156 263.371094 183.214844 266.167969 193.445312 269.140625 C 205.847656 272.695312 218.625 276.398438 228.300781 287.765625 Z M 168.597656 204.042969 C 169.175781 204.042969 169.730469 203.816406 170.160156 203.410156 C 170.585938 202.984375 170.839844 202.429688 170.863281 201.824219 C 170.890625 201.21875 170.664062 200.640625 170.234375 200.1875 C 169.804688 199.734375 169.25 199.503906 168.648438 199.480469 C 167.386719 199.457031 166.351562 200.4375 166.328125 201.699219 C 166.300781 202.957031 167.285156 203.992188 168.546875 204.015625 C 168.546875 204.042969 168.570312 204.042969 168.597656 204.042969 Z M 166.933594 201.722656 C 166.957031 200.816406 167.6875 200.109375 168.570312 200.109375 C 168.570312 200.109375 168.597656 200.109375 168.621094 200.109375 C 169.050781 200.109375 169.476562 200.3125 169.78125 200.613281 C 170.082031 200.941406 170.257812 201.34375 170.234375 201.800781 C 170.234375 202.226562 170.03125 202.65625 169.730469 202.957031 C 169.402344 203.261719 169 203.410156 168.546875 203.410156 C 167.636719 203.386719 166.90625 202.628906 166.933594 201.722656 Z M 166.933594 201.722656 " fill-opacity="1" fill-rule="nonzero"/></g></svg>